<?xml version="1.0" encoding="utf-8"?><!DOCTYPE svg PUBLIC "-//W3C//DTD SVG 1.1//EN" "http://www.w3.org/Graphics/SVG/1.1/DTD/svg11.dtd"><svg xmlns="http://www.w3.org/2000/svg" xmlns:xlink="http://www.w3.org/1999/xlink"><symbol class="asvg" viewBox="0 0 30 30" id="aircraft" xmlns="http://www.w3.org/2000/svg"><path d="M28.893.073l-3.175 1.445c-.203.094-.39.222-.55.382l-5.174 5.176L2.18 4.94a1.058 1.058 0 00-.875.303l-.992.992a1.06 1.06 0 00.316 1.717l12.767 5.723-3.665 3.666H3.327c-.281 0-.55.112-.75.31l-.535.537a1.06 1.06 0 00.331 1.724l5.402 2.314 2.314 5.402a1.06 1.06 0 001.724.331l.537-.538c.2-.2.31-.469.31-.75v-6.403l3.666-3.665 5.723 12.77a1.06 1.06 0 001.717.316l.992-.992c.231-.231.34-.553.303-.875l-2.14-17.815 5.177-5.177c.16-.16.288-.344.382-.55l1.445-3.175c.303-.653-.373-1.332-1.032-1.032z"/></symbol><symbol viewBox="0 0 482 482" id="box" xmlns="http://www.w3.org/2000/svg"><path d="M279.8 244.8l-21.6 12.5V482l194.5-112.3V145zM315 43.3L240.2 0 40.3 115.4l74.9 43.3zM440 115.4l-86.2-49.1L154 181.7l11.4 5.9 74.8 43.2 74.4-42.9zM138.9 264.3l-35.8-18.4v-57.2l-73.8-42.5v223.1l193.1 111.5V257.7l-83.5-48.1z"/></symbol><symbol viewBox="0 0 24 24" id="drone" xmlns="http://www.w3.org/2000/svg"><path d="M19.501 18a.75.75 0 01-.741-.873l.77-4.64a1.256 1.256 0 00-.591-1.292l-4.348-2.548a.75.75 0 01.757-1.295l4.351 2.55a2.766 2.766 0 011.31 2.835l-.769 4.636a.75.75 0 01-.739.627zM4.499 18a.75.75 0 01-.739-.627l-.77-4.64a2.764 2.764 0 011.308-2.829L8.69 7.323a.749.749 0 11.76 1.293l-4.391 2.58c-.439.26-.677.777-.59 1.287l.771 4.644a.751.751 0 01-.741.873zM5.25 1.5H.75a.75.75 0 010-1.5h4.5a.75.75 0 010 1.5z"/><path d="M3 4.25a.75.75 0 01-.75-.75V.75a.75.75 0 011.5 0V3.5a.75.75 0 01-.75.75zM23.25 1.5h-4.5a.75.75 0 010-1.5h4.5a.75.75 0 010 1.5z"/><path d="M21 4.25a.75.75 0 01-.75-.75V.75a.75.75 0 011.5 0V3.5a.75.75 0 01-.75.75zM19.5 4h-2.241a1.49 1.49 0 01-1.29-.748C15.168 1.863 13.675 1 12 1a4.508 4.508 0 00-3.898 2.252c-.265.461-.76.748-1.29.748H4.57a.5.5 0 00-.5.5v2a.5.5 0 00.5.5h2.241c.53 0 1.025.287 1.29.748C8.901 9.137 10.395 10 12.07 10a4.509 4.509 0 003.898-2.253c.265-.461.76-.747 1.291-.747H19.5a.5.5 0 00.5-.5v-2a.5.5 0 00-.5-.5z"/><path d="M3.319 2.75h-.5c-.965 0-1.75.785-1.75 1.75v2c0 .965.785 1.75 1.75 1.75h.5c.965 0 1.75-.785 1.75-1.75v-2c0-.965-.785-1.75-1.75-1.75zM21.319 2.75h-.5c-.965 0-1.75.785-1.75 1.75v2c0 .965.785 1.75 1.75 1.75h.5c.965 0 1.75-.785 1.75-1.75v-2c0-.965-.785-1.75-1.75-1.75zM9.944 12.965l5.443 2.788 2.164-1.065-5.347-2.642a.438.438 0 00-.39 0zM6.462 14.687L12 17.432l2.074-1.022.3-.152-5.449-2.788-.3.152zM12.444 18.224L12.45 24l5.305-2.769a.466.466 0 00.245-.408v-5.344l-2.248 1.108v1.948c0 .25-.204.457-.45.457s-.45-.207-.45-.457v-1.497l-.3.146zM8.248 16.586v.003l3.297 1.629.012.006L11.55 24l-5.305-2.769A.466.466 0 016 20.823v-5.344z"/></symbol><symbol fill="none" viewBox="0 0 160 46" id="logo" xmlns="http://www.w3.org/2000/svg"><g clip-path="url(#dclip0)"><path d="M36.723 33.864a18.12 18.12 0 01-2.164 3.033l.022.023-.766.768a17.914 17.914 0 01-12.79 5.323 17.918 17.918 0 01-12.752-5.283 17.918 17.918 0 01-5.284-12.753c0-.356.01-.717.032-1.076.003-.049.005-.098.01-.15v-.014l.007-.099v-.017c.005-.073.013-.15.02-.223.005-.062.01-.126.017-.192l.03-.29c.007-.056.012-.12.022-.182l.032-.258.022-.147a6.12 6.12 0 01.04-.26c.006-.047.016-.1.024-.152a11.228 11.228 0 01.059-.32l.034-.18c.015-.07.027-.14.044-.213.103-.491.231-.985.376-1.466l.005-.012c.017-.064.037-.128.059-.19l.051-.164c.104-.315.217-.634.337-.94.017-.043.034-.09.052-.133.02-.047.036-.096.058-.148l.08-.191c.019-.05.043-.106.068-.16l.01-.025c.034-.073.066-.15.1-.223a17.783 17.783 0 011.714-2.984l.104-.14c.071-.099.142-.197.216-.29.035-.044.071-.094.108-.14.079-.104.16-.204.238-.302.047-.057.094-.118.143-.175l.142-.17c.047-.056.099-.115.148-.171l.17-.194-2.118-2.12A20.892 20.892 0 000 24.972 20.884 20.884 0 006.158 39.84a20.884 20.884 0 0014.867 6.158c5.635 0 10.928-2.201 14.902-6.195a21.084 21.084 0 002.977-3.76l-2.181-2.179z"/><path d="M9.813 36.188a15.758 15.758 0 0011.212 4.644c.133 0 .265-.002.398-.005.066 0 .13-.002.197-.005h.01l.292-.014.233-.015.106-.008.054-.004c.07-.005.142-.013.216-.02.064-.005.123-.01.184-.017l.12-.013.081-.01.158-.019c.196-.025.388-.052.577-.084.054-.01.105-.02.157-.026l.017-.003.123-.022.02-.005c.054-.01.108-.02.162-.032.142-.027.282-.056.42-.088.093-.02.186-.045.28-.067l.012-.002a.76.76 0 00.071-.017c.07-.017.13-.035.194-.05.054-.014.106-.026.155-.041.044-.013.084-.022.12-.035.037-.01.067-.017.094-.027l.022-.007c.04-.01.078-.022.118-.034a3.87 3.87 0 00.18-.057l.13-.04c.132-.043.265-.088.395-.134l.105-.037.027-.01.128-.047.182-.068c.049-.02.093-.035.135-.052.081-.032.155-.061.228-.093l.221-.094c.07-.03.138-.059.202-.088l.105-.047.032-.014.163-.077c.334-.16.663-.329.98-.51.034-.02.066-.04.1-.057.074-.042.148-.086.219-.128l.363-.223c.16-.103.327-.211.506-.334l.148-.103.02-.015.11-.079.01-.007.08-.06.01-.006c.047-.032.091-.067.136-.101.051-.037.1-.076.147-.113.034-.027.061-.05.091-.071l.034-.027c.05-.04.101-.079.15-.12l.152-.123.013-.01c.096-.079.189-.16.285-.241.03-.025.056-.05.086-.076l-2.12-2.122a12.819 12.819 0 01-8.337 3.063c-7.093 0-12.865-5.773-12.865-12.866 0-3.459 1.353-6.703 3.807-9.137a12.979 12.979 0 014.023-2.705l-2.25-2.25a15.923 15.923 0 00-3.895 2.845c-3.021 2.999-4.684 6.99-4.684 11.244 0 4.237 1.65 8.219 4.645 11.215z" fill="#fff"/><path d="M39.02 21.025a20.884 20.884 0 00-6.158-14.867A20.89 20.89 0 0017.992 0c-5.635 0-10.928 2.198-14.9 6.195a21.12 21.12 0 00-2.979 3.76l2.184 2.184A18.119 18.119 0 014.46 9.105l-.023-.022.767-.769a17.91 17.91 0 0112.79-5.322c4.816 0 9.345 1.876 12.752 5.283a17.914 17.914 0 015.283 12.753c0 .356-.01.72-.032 1.076-.002.046-.005.098-.01.15l-.007.11v.017c-.005.074-.012.15-.02.224-.004.061-.01.127-.017.194l-.03.29c-.007.056-.011.117-.021.181l-.032.258-.022.145c-.01.084-.025.172-.04.263-.007.047-.017.1-.024.152-.008.044-.015.088-.025.133a10.738 10.738 0 01-.071.366 17.599 17.599 0 01-.42 1.68c-.02.066-.04.135-.064.204l-.051.164c-.104.317-.217.634-.337.94l-.052.131-.059.148-.078.191c-.02.05-.044.106-.069.16l-.01.024-.1.224a17.79 17.79 0 01-1.714 2.984l-.102.14a17.418 17.418 0 01-.324.43c-.078.103-.16.204-.238.302-.047.056-.093.118-.142.174a6.206 6.206 0 01-.133.16l-.01.01c-.049.056-.098.115-.15.172l-.17.194 2.118 2.12a20.89 20.89 0 005.446-14.114z" fill="#fff"/><path d="M23.027 32.87l2.25 2.25a15.922 15.922 0 003.895-2.845c3.02-3 4.68-6.993 4.68-11.247 0-4.235-1.651-8.219-4.645-11.213a15.755 15.755 0 00-11.613-4.642c-.067 0-.13.002-.197.005h-.007l-.292.015-.234.014-.105.008-.054.005a6.884 6.884 0 00-.214.02c-.064.007-.123.011-.184.019-.044.005-.084.01-.12.012l-.062.008-.02.002a19.2 19.2 0 00-.732.103c-.054.01-.105.017-.157.027l-.017.003-.12.022-.027.005-.157.03a9.232 9.232 0 00-.425.088c-.094.02-.187.044-.28.066l-.013.002a.759.759 0 00-.071.017c-.069.018-.13.035-.194.05l-.155.041c-.044.013-.083.022-.123.035l-.093.027-.022.007a3.995 3.995 0 00-.297.09 3.776 3.776 0 01-.13.04c-.133.045-.266.089-.396.135l-.103.037-.03.01c-.044.017-.083.03-.122.047a3.796 3.796 0 00-.187.071l-.135.054a7.346 7.346 0 00-.229.093l-.22.094-.202.088a3.495 3.495 0 01-.106.047l-.031.015c-.054.024-.109.051-.163.076-.334.16-.663.329-.98.51l-.1.057-.207.12-.228.14c-.047.03-.096.062-.145.091-.162.103-.327.212-.504.334-.046.032-.09.064-.135.094l-.03.02a7.64 7.64 0 00-.115.083l-.014.01c-.025.02-.05.036-.076.056l-.01.008c-.047.031-.091.066-.135.1-.052.037-.099.076-.148.113l-.09.071-.035.027-.15.12c-.056.045-.11.092-.164.136a12.364 12.364 0 00-.371.317l2.122 2.122a12.821 12.821 0 018.336-3.065c7.094 0 12.866 5.772 12.866 12.865 0 3.459-1.353 6.703-3.807 9.137a13.015 13.015 0 01-4.021 2.702z"/></g><g clip-path="url(#dclip1)" fill="#fff"><path d="M57.92 30.235l-.614 1.855h1.24l-.613-1.855h-.013zM58.808 19.75c-.21.933-.608 1.645-1.182 2.135-.588.47-1.3.711-2.148.711a3.84 3.84 0 01-1.94-.522c-.587-.346-1.024-.881-1.299-1.593-.3-.712-.437-1.56-.437-2.514 0-.744.124-1.475.366-2.167a3.346 3.346 0 011.234-1.665c.587-.398 1.331-.607 2.2-.607.764 0 1.384.176 1.887.555.503.365.881.953 1.142 1.769l.033.085 1.737-.398-.033-.105c-.327-1.077-.901-1.926-1.717-2.533-.816-.588-1.822-.881-3.017-.881-1.038 0-2.01.228-2.898.692a4.982 4.982 0 00-2.024 2.082c-.47.901-.712 1.972-.712 3.173 0 1.11.209 2.168.627 3.121.418.973 1.038 1.737 1.854 2.24.797.522 1.854.783 3.14.783 1.234 0 2.292-.346 3.154-1.005.868-.66 1.456-1.646 1.789-2.912l.032-.105-1.75-.43-.038.09zM74.692 12.784C73.805 12.26 72.8 12 71.71 12c-1.685 0-3.069.555-4.127 1.645-1.057 1.09-1.593 2.638-1.593 4.558 0 1.025.229 1.99.692 2.911.451.921 1.13 1.646 2.011 2.188.882.535 1.894.796 2.997.796 1.038 0 2.011-.241 2.893-.731.9-.47 1.593-1.195 2.095-2.135.483-.92.732-1.991.732-3.173 0-1.162-.242-2.2-.693-3.121a5.192 5.192 0 00-2.023-2.155zm-.189 8.63c-.731.778-1.684 1.182-2.807 1.182-1.11 0-2.044-.398-2.795-1.162-.73-.783-1.11-1.854-1.11-3.205 0-1.685.399-2.912 1.163-3.624a3.934 3.934 0 012.755-1.077c.764 0 1.436.19 2.043.555a3.613 3.613 0 011.372 1.58c.313.679.47 1.488.47 2.409 0 1.436-.366 2.566-1.09 3.343zM92.569 12.503l-2.795 7.959c-.228.64-.398 1.142-.522 1.54l-.47-1.384-2.788-8.22h-.19v4.25l2.586 7.457h1.541l2.638-7.443v-4.16zM85.178 12.398h-1.697v11.707h1.697V12.398zM94.874 12.398h-1.685v11.707h1.685V12.398zM102.695 12.398h-1.75v11.707h1.75V12.398zM109.733 14.22c-.261-.483-.574-.882-.985-1.143-.399-.28-.901-.47-1.476-.555-.418-.085-1.025-.124-1.802-.124h-2.148v1.56h2.272c.692 0 1.162.033 1.423.105.379.104.693.313.921.64.242.326.346.712.346 1.182 0 .626-.189 1.11-.588 1.456-.398.346-1.09.522-2.063.522h-2.304v1.58h2.291c1.665 0 2.86-.366 3.5-1.058.659-.692.986-1.54.986-2.546a3.67 3.67 0 00-.373-1.62zM120.741 12.398l-4.576 11.707h1.854l.522-1.371h-.02l1.319-3.552.281-.731.973-2.586h.019c.209-.574.379-1.162.523-1.736.176.554.418 1.234.711 1.99l1.182 3.05h-2.997l-.535 1.436h4.094l1.371 3.487h1.991l-4.89-11.707h-1.822v.013zM134.968 12.398h-1.632v11.707h1.632V12.398zM141.066 21.193l-.033-.053v2.965h1.731V12.398h-1.698v8.795zM135.588 16.146l4.819 7.07V20.22l-4.819-7.058v2.984zM157.917 12.398l-2.304 3.434c-.451.68-.849 1.32-1.195 1.874v-.02l-.973 1.476v4.943h1.769v-4.943l4.766-6.764h-2.063zM154.052 17.08l-.725-1.163-2.343-3.519h-2.149l4.231 6.21.986-1.529zM50 29.942h1.162v3.669h.647v-3.67h1.162v-.574H50v.575z"/><path d="M57.658 29.367l-1.54 4.244h.679l.326-.947h1.613l.326.947h.68L58.2 29.367h-.542zm-.352 2.723l.614-1.855h.013l.613 1.855h-1.24zM65.036 31.88h.862v.223c-.007.267-.085.483-.248.646a.827.827 0 01-.62.255.759.759 0 01-.392-.098.676.676 0 01-.268-.216.68.68 0 01-.163-.359c-.033-.15-.046-.43-.046-.849 0-.418.013-.698.046-.855a.737.737 0 01.163-.352.736.736 0 01.268-.216.91.91 0 01.392-.091.881.881 0 01.522.176.936.936 0 01.287.437h.68a1.582 1.582 0 00-.49-.894c-.262-.242-.594-.36-1-.366-.332.007-.613.085-.835.242-.229.15-.392.326-.496.522a1.17 1.17 0 00-.144.405c-.026.17-.046.496-.046.992 0 .483.014.816.046.986.013.092.033.17.059.229.026.058.052.117.085.183.104.195.267.365.496.515.222.157.503.235.836.242a1.52 1.52 0 001.077-.438c.28-.287.43-.64.437-1.07v-.862h-1.508v.614zM71.513 29.367h-.64v4.244h2.71v-.607h-2.07v-3.637zM78.407 29.367h-.64v4.244h.64v-4.244zM85.413 32.383h-.006l-1.926-3.016h-.601v4.244h.64v-3.017h.013l1.92 3.017h.606v-4.244h-.646v3.016zM90.532 33.61h2.71v-.606h-2.064v-1.247h1.763v-.569h-1.763v-1.214h2.063v-.607h-2.71v4.244zM103.805 31.88h.862v.223c-.007.267-.085.483-.248.646a.826.826 0 01-.62.255.757.757 0 01-.392-.098.682.682 0 01-.268-.216.677.677 0 01-.163-.359c-.033-.15-.046-.43-.046-.849 0-.418.013-.698.046-.855a.739.739 0 01.163-.352.743.743 0 01.268-.216.866.866 0 01.914.085.934.934 0 01.287.437h.679a1.58 1.58 0 00-.489-.894c-.255-.242-.595-.36-.999-.366-.333.007-.614.085-.836.242-.229.15-.392.326-.496.522a1.162 1.162 0 00-.144.405c-.026.17-.046.496-.046.992 0 .483.013.816.046.986.013.092.033.17.059.229.026.058.052.117.085.183.104.195.267.365.496.515.222.157.503.235.836.242.431-.007.79-.157 1.077-.438a1.5 1.5 0 00.437-1.07v-.862h-1.508v.614zM112.339 30.092a1.404 1.404 0 00-.484-.522c-.228-.157-.509-.236-.842-.242-.333.006-.614.085-.836.242-.228.15-.391.326-.496.522a1.162 1.162 0 00-.143.405c-.026.17-.046.496-.046.992 0 .483.013.816.046.986.013.091.032.17.058.228.027.06.053.118.085.183.105.196.268.366.496.516.222.157.503.235.836.242.34-.007.62-.092.842-.242.222-.15.386-.32.484-.516a.995.995 0 00.15-.411c.026-.17.039-.496.039-.986s-.013-.823-.039-.992a.999.999 0 00-.15-.405zm-.503 2.246a.808.808 0 01-.17.359.82.82 0 01-.653.313.76.76 0 01-.392-.098.671.671 0 01-.267-.215.677.677 0 01-.163-.36c-.033-.15-.046-.43-.046-.848s.013-.699.046-.855a.73.73 0 01.163-.353.731.731 0 01.267-.215.914.914 0 01.392-.092c.15.007.287.033.398.092.105.058.19.13.255.215a.686.686 0 01.17.353c.026.15.046.437.046.855s-.014.699-.046.849zM116.85 33.61h2.71v-.606h-2.064v-1.247h1.763v-.569h-1.763v-1.214h2.064v-.607h-2.71v4.244zM125.325 31.189c-.203-.026-.359-.046-.477-.066-.209-.039-.359-.11-.457-.209a.456.456 0 01-.144-.333c.007-.202.072-.359.216-.456.13-.099.3-.15.496-.15.385.006.731.117 1.051.326l.359-.53a2.351 2.351 0 00-1.377-.437c-.438.007-.777.118-1.019.346-.248.229-.372.53-.372.895 0 .307.098.568.294.784.189.208.47.345.836.404.202.026.391.052.561.079.372.065.555.254.555.568-.007.385-.287.58-.836.587a1.88 1.88 0 01-1.208-.424l-.424.483c.451.385.992.581 1.619.581.973-.013 1.469-.424 1.489-1.234 0-.3-.092-.561-.281-.79-.189-.222-.483-.366-.881-.424zM138.069 31.189h-1.678v-1.822h-.646v4.244h.646v-1.854h1.678v1.854h.647v-4.244h-.647v1.822zM143.188 33.61h2.709v-.606h-2.069v-1.247h1.763v-.569h-1.763v-1.214h2.069v-.607h-2.709v4.244zM153.021 30.549c-.014-.392-.151-.692-.425-.908-.222-.189-.509-.28-.862-.28h-1.658v4.243h.646V31.79h.823l.875 1.815h.764l-.986-1.88c.542-.202.816-.594.823-1.175zm-2.299.679v-1.286h1.006c.202 0 .365.045.47.13.137.098.209.261.215.483a.65.65 0 01-.176.464c-.117.137-.3.209-.542.209h-.973zM157.29 33.61H160v-.606h-2.07v-1.247h1.763v-.569h-1.763v-1.214H160v-.607h-2.71v4.244z"/></g><defs><clipPath id="dclip0"><path fill="#fff" d="M0 0h39.019v46H0z"/></clipPath><clipPath id="dclip1"><path fill="#fff" transform="translate(50 12)" d="M0 0h110v21.643H0z"/></clipPath></defs></symbol><symbol viewBox="0 0 612 612" id="ship" xmlns="http://www.w3.org/2000/svg"><path d="M202.302 353.148c-46.343 23.113-90.541 45.085-146.523 61.376V305.988a25.513 25.513 0 0111.166-21.096l41.807-28.428c3.571-2.428 10.026-4.415 14.344-4.415h67.119v-39.534h75.523v39.534h57.871c9.393 0 17.006 7.614 17.006 17.006v23.501c-53.202 18.167-96.082 39.535-138.313 60.592zm-12.087-179.672v20.514h75.523v-20.514c0-10.51-8.52-19.029-19.029-19.029h-37.467c-10.508 0-19.027 8.519-19.027 19.029zm-43.863-59.811a38.948 38.948 0 0015.307-3.122c5.336 7.391 13.97 12.248 23.782 12.248 3.202 0 6.228-.64 9.113-1.587-.046.532-.16 1.044-.16 1.587 0 10.061 8.155 18.215 18.215 18.215s18.215-8.155 18.215-18.215-8.155-18.215-18.215-18.215l-.012.001a29.26 29.26 0 002.226-11.169c0-16.228-13.155-29.384-29.383-29.384-.54 0-1.043.13-1.575.159-4.575-16.508-19.549-28.695-37.513-28.695-21.588 0-39.088 17.5-39.088 39.088s17.5 39.089 39.088 39.089zm382.602 382.6c-3.778 5.754-3.881 13.155-.061 18.881l22.525 33.761c8.232 12.31-1.351 28.69-16.114 27.549l-500.885-39.35c-13.626-1.07-25.016-10.651-28.489-23.872C2.893 501.669 0 487.318 0 474.604c0-26.148 10.511-31.027 32.011-36.157 192.263-45.878 245.145-156.462 565.948-174.566 8.333-.47 15.035 6.81 13.919 15.081-9.506 70.423-43.084 156.639-82.924 217.303zm-24.48-82.651c0-4.7-3.804-8.504-8.504-8.504s-8.503 3.804-8.503 8.504c0 13.133-8.766 24.136-20.711 27.803v-58.622c6.393-3.17 10.827-9.696 10.827-17.314 0-10.707-8.68-19.387-19.387-19.387-10.706 0-19.386 8.68-19.386 19.387 0 7.663 4.484 14.226 10.938 17.373v58.563c-11.945-3.667-20.711-14.67-20.711-27.803 0-4.7-3.804-8.504-8.504-8.504s-8.504 3.804-8.504 8.504c0 25.485 20.735 46.221 46.221 46.221 25.488 0 46.224-20.735 46.224-46.221z"/></symbol><symbol viewBox="0 0 416.5 416.5" id="trailer" xmlns="http://www.w3.org/2000/svg"><path d="M10 251.29h7.239V109.18c0-5.523 4.478-10 10-10h256.559c5.522 0 10 4.477 10 10v141.257h13.464V111.208c0-5.523 4.478-10 10-10h26.366c21.597 0 39.559 15.837 42.9 36.506H406.5c5.522 0 10 4.477 10 10v137.179c0 5.523-4.478 10-10 10h-13.776c-4.226 13-16.451 22.427-30.843 22.427s-26.617-9.427-30.843-22.427h-46.133c-4.226 13-16.451 22.427-30.843 22.427-12.377 0-23.153-6.974-28.616-17.196-5.463 10.222-16.239 17.196-28.617 17.196-17.881 0-32.428-14.547-32.428-32.427 0-8.345 3.17-15.963 8.368-21.716h-26.316c5.197 5.753 8.368 13.371 8.368 21.716 0 17.88-14.547 32.427-32.428 32.427-12.378 0-23.154-6.974-28.617-17.196-5.463 10.222-16.239 17.196-28.617 17.196-17.881 0-32.428-14.547-32.428-32.427 0-8.345 3.17-15.963 8.368-21.716h-4.037c-.883 4.621-4.944 8.113-9.822 8.113H10c-5.522 0-10-4.477-10-10s4.478-10 10-10zm27.239-132.11v94.729h236.559V119.18H37.239zM266.49 284.893c0-6.853-5.575-12.428-12.428-12.428s-12.427 5.575-12.427 12.428 5.574 12.427 12.427 12.427 12.428-5.574 12.428-12.427zm-57.233 0c0-6.853-5.575-12.428-12.428-12.428s-12.428 5.575-12.428 12.428 5.575 12.427 12.428 12.427 12.428-5.574 12.428-12.427zm73.821-14.456a32.175 32.175 0 011.828 4.456h22.356v-4.456h-24.184zm60.55-149.229h-16.366v16.506h38.777c-2.972-9.551-11.894-16.506-22.411-16.506zm52.872 66.158h-32.964v11.963H396.5v-11.963zm0 31.963h-42.964c-5.522 0-10-4.477-10-10v-31.963c0-5.523 4.478-10 10-10H396.5v-9.651h-69.238v117.179h3.776c4.226-13.001 16.451-22.428 30.843-22.428s26.617 9.427 30.843 22.428h3.776v-55.565zm-47.047 65.564c0 6.853 5.575 12.427 12.428 12.427s12.428-5.575 12.428-12.427-5.575-12.428-12.428-12.428-12.428 5.576-12.428 12.428zm-296.723 0c0 6.853 5.575 12.427 12.428 12.427s12.428-5.575 12.428-12.427-5.575-12.428-12.428-12.428-12.428 5.576-12.428 12.428zm69.663 12.427c6.853 0 12.428-5.575 12.428-12.427s-5.575-12.428-12.428-12.428-12.428 5.575-12.428 12.428 5.575 12.427 12.428 12.427zm-24.06-34.143h-9.114a32.567 32.567 0 014.557 6.484 32.554 32.554 0 014.557-6.484zm175.465-20v-9.268H37.239v9.268h236.559z" /></symbol><symbol viewBox="0 0 512 512" id="train" xmlns="http://www.w3.org/2000/svg"><path d="M177.344 386.347c-4.587-3.669-11.285-2.901-14.997 1.664L77.013 494.677c-3.669 4.608-2.923 11.307 1.664 14.997a10.72 10.72 0 006.656 2.325c3.115 0 6.229-1.365 8.341-3.989l85.333-106.667c3.67-4.607 2.924-11.306-1.663-14.996zM434.987 494.656l-85.333-106.667c-3.669-4.565-10.389-5.355-14.997-1.664-4.587 3.691-5.333 10.389-1.664 14.997l85.333 106.667a10.626 10.626 0 008.341 4.011 10.57 10.57 0 006.656-2.347c4.586-3.69 5.333-10.389 1.664-14.997z"/><path d="M405.333 469.333H106.667C100.779 469.333 96 474.112 96 480s4.779 10.667 10.667 10.667h298.667c5.888 0 10.667-4.779 10.667-10.667-.001-5.888-4.78-10.667-10.668-10.667zM373.333 426.667H138.667c-5.888 0-10.667 4.779-10.667 10.667s4.779 10.667 10.667 10.667h234.667c5.888 0 10.667-4.779 10.667-10.667-.001-5.889-4.78-10.667-10.668-10.667z"/><circle cx="149.333" cy="330.667" r="10.667"/><path d="M419.328 70.507C417.152 30.976 384.405 0 344.789 0H167.211c-39.616 0-72.363 30.976-74.539 70.528L85.867 192.96c61.696 8.213 145.109 79.381 170.133 101.909 25.024-22.528 108.437-93.696 170.133-101.931l-6.805-122.431zm-173.995 100.16c0 5.44-4.075 10.005-9.493 10.603l-96 10.667a10.656 10.656 0 01-8.277-2.645 10.709 10.709 0 01-3.563-7.957v-74.667c0-5.44 4.075-10.005 9.493-10.603l96-10.667c3.029-.32 6.037.619 8.299 2.667a10.683 10.683 0 013.541 7.936v74.666zM224 53.333c0-17.643 14.357-32 32-32s32 14.357 32 32-14.357 32-32 32-32-14.357-32-32zm160 128c0 3.029-1.301 5.931-3.563 7.957a10.656 10.656 0 01-8.277 2.645l-96-10.667a10.652 10.652 0 01-9.493-10.603V96c0-3.029 1.301-5.931 3.563-7.957 2.261-2.027 5.269-2.965 8.299-2.667l95.979 10.688a10.652 10.652 0 019.493 10.603v74.666z"/><circle cx="362.667" cy="330.667" r="10.667"/><circle cx="256" cy="53.333" r="10.667"/><path d="M434.795 349.035l-7.488-134.784c-64.235 9.365-162.944 101.845-163.989 102.827-.619.597-1.387.917-2.112 1.344-.427.235-.768.597-1.216.768-1.28.533-2.624.811-3.989.811s-2.731-.277-4.011-.811c-.427-.171-.768-.512-1.195-.747-.725-.405-1.493-.747-2.133-1.344-1.045-.981-99.733-93.461-163.989-102.827l-7.488 134.784c-.832 14.784 4.331 28.864 14.507 39.616 10.176 10.731 23.936 16.661 38.741 16.661h251.115c14.805 0 28.565-5.931 38.741-16.683s15.338-24.831 14.506-39.615zm-285.462 13.632c-17.643 0-32-14.357-32-32s14.357-32 32-32 32 14.357 32 32c0 17.642-14.357 32-32 32zm213.334 0c-17.643 0-32-14.357-32-32s14.357-32 32-32 32 14.357 32 32c0 17.642-14.358 32-32 32z"/></symbol><symbol viewBox="0 0 469.333 469.333" id="truck" xmlns="http://www.w3.org/2000/svg"><path d="M405.333 149.333h-64V64H42.667C19.093 64 0 83.093 0 106.667v234.667h42.667c0 35.307 28.693 64 64 64s64-28.693 64-64h128c0 35.307 28.693 64 64 64s64-28.693 64-64h42.667V234.667l-64.001-85.334zm-298.666 224c-17.707 0-32-14.293-32-32s14.293-32 32-32 32 14.293 32 32-14.294 32-32 32zm256 0c-17.707 0-32-14.293-32-32s14.293-32 32-32 32 14.293 32 32-14.294 32-32 32zm-21.334-138.666v-53.333h53.333l41.92 53.333h-95.253z"/></symbol><symbol viewBox="0 0 521.886 521.886" id="van" xmlns="http://www.w3.org/2000/svg"><path d="M494.03 228.989l-68.72-23.735-39.809-67.593c-13.327-21.001-22.402-27.855-62.358-27.855H27.866C12.479 109.807 0 122.286 0 137.662V326.958c0 15.381 12.479 27.865 27.866 27.865h14.788c1.836-30.591 27.152-54.854 58.201-54.854 31.048 0 56.363 24.263 58.202 54.854h200.24c1.106-18.06 10.519-35.368 26.973-45.781 27.237-17.258 63.3-9.176 80.557 18.058a58.148 58.148 0 018.952 27.724h18.255c15.387 0 27.853-12.484 27.853-27.865v-70.103c-.001-15.393-11.413-22.446-27.857-27.867zm-104.566-16.142H262.479a3.422 3.422 0 01-3.438-3.423v-67.431a3.422 3.422 0 013.438-3.423h90.94c1.882 0 4.687.7 6.074 3.423l33.39 67.426a3.417 3.417 0 01-3.419 3.428zm127.519 86.105c0 5.145-4.169 9.315-9.313 9.315h-28.717c-5.144 0-9.313-4.171-9.313-9.315v-20.958a9.312 9.312 0 019.313-9.312h28.717a9.311 9.311 0 019.313 9.312v20.958zm-416.828 7.222c-29.2 0-52.957 23.762-52.957 52.958 0 29.2 23.756 52.947 52.957 52.947 29.198 0 52.946-23.747 52.946-52.947 0-29.196-23.747-52.958-52.946-52.958zm0 89.102c-19.944 0-36.146-16.215-36.146-36.138 0-19.924 16.211-36.141 36.146-36.141 19.931 0 36.137 16.217 36.137 36.141 0 19.923-16.206 36.138-36.137 36.138zm317.59-89.102c-29.2 0-52.96 23.762-52.96 52.958 0 29.2 23.76 52.947 52.96 52.947 29.197 0 52.953-23.747 52.953-52.947 0-29.196-23.756-52.958-52.953-52.958zm0 89.102c-19.937 0-36.147-16.215-36.147-36.138 0-19.924 16.217-36.141 36.147-36.141 19.938 0 36.141 16.217 36.141 36.141-.001 19.923-16.208 36.138-36.141 36.138z"/></symbol></svg>